<svg width="15" height="15" viewBox="0 0 15 15" fill="none" xmlns="http://www.w3.org/2000/svg">
<path d="M12.9874 2.18061H10.3747V1.1853C10.3747 1.11687 10.3187 1.06088 10.2503 1.06088H9.37936C9.31093 1.06088 9.25495 1.11687 9.25495 1.1853V2.18061H5.27371V1.1853C5.27371 1.11687 5.21772 1.06088 5.14929 1.06088H4.2784C4.20997 1.06088 4.15398 1.11687 4.15398 1.1853V2.18061H1.5413C1.26603 2.18061 1.04364 2.403 1.04364 2.67826V13.0046C1.04364 13.2799 1.26603 13.5023 1.5413 13.5023H12.9874C13.2626 13.5023 13.485 13.2799 13.485 13.0046V2.67826C13.485 2.403 13.2626 2.18061 12.9874 2.18061ZM12.3653 12.3825H2.16336V6.47288H12.3653V12.3825ZM2.16336 5.41536V3.30033H4.15398V4.04681C4.15398 4.11524 4.20997 4.17123 4.2784 4.17123H5.14929C5.21772 4.17123 5.27371 4.11524 5.27371 4.04681V3.30033H9.25495V4.04681C9.25495 4.11524 9.31093 4.17123 9.37936 4.17123H10.2503C10.3187 4.17123 10.3747 4.11524 10.3747 4.04681V3.30033H12.3653V5.41536H2.16336Z" fill="#C3C3C3"/>
</svg>

