<svg width="104" height="98" viewBox="0 0 104 98" fill="none" xmlns="http://www.w3.org/2000/svg">
<path opacity="0.2" d="M46.1546 25.8812L21.0141 11.6557L20.8975 24.6909L46.0379 38.9165L46.1546 25.8812Z" fill="url(#paint0_linear_4_885)"/>
<path opacity="0.15" d="M27.4188 18.4346L34.9784 22.7174L34.9667 24.2812L27.4071 19.9983L27.4188 18.4346Z" fill="white"/>
<path opacity="0.15" d="M27.3953 21.5747L43.4945 30.6889L43.4828 32.276L27.3836 23.1618L27.3953 21.5747Z" fill="white"/>
<path d="M26.0769 18.9134C26.0652 19.987 25.4236 20.5005 24.6303 20.0454C23.837 19.6019 23.207 18.3649 23.2187 17.2913C23.2303 16.2177 23.872 15.7042 24.6653 16.1593C25.4586 16.6028 26.0885 17.8398 26.0769 18.9134Z" fill="#F2C94C"/>
<path opacity="0.2" d="M103.318 84.2773L78.1896 70.0517L78.0729 83.0869L103.213 97.3125L103.318 84.2773Z" fill="url(#paint1_linear_4_885)"/>
<path opacity="0.15" d="M84.5943 76.8299L92.1539 81.1128L92.1422 82.6765L84.5826 78.3937L84.5943 76.8299Z" fill="white"/>
<path opacity="0.15" d="M84.5708 79.9708L100.67 89.0849L100.658 90.672L84.5591 81.5579L84.5708 79.9708Z" fill="white"/>
<path d="M83.2524 77.3094C83.2407 78.3831 82.5991 78.8965 81.8058 78.4414C81.0125 77.998 80.3825 76.761 80.3942 75.6873C80.4059 74.6137 81.0475 74.1002 81.8408 74.5553C82.6341 74.9988 83.2641 76.2358 83.2524 77.3094Z" fill="#F2C94C"/>
<path opacity="0.1" d="M74.0014 0.825974C69.265 1.74789 58.6138 2.93822 53.9707 0.3125C54.0057 18.8909 58.5555 45.2532 73.4298 66.9942C88.5374 62.2212 93.4954 41.2504 93.8454 22.8937C89.2023 20.2563 78.6795 7.08103 74.0014 0.825974Z" fill="url(#paint2_linear_4_885)"/>
<path opacity="0.3" d="M68.2147 4.67568C63.4783 5.5976 52.8271 6.78792 48.184 4.1622C48.219 22.7406 52.7688 49.1029 67.6431 70.8439C82.7507 66.0709 87.7088 45.0885 88.0587 26.7434C83.4156 24.106 72.8928 10.9307 68.2147 4.67568Z" fill="url(#paint3_linear_4_885)"/>
<path opacity="0.4" d="M88.0707 26.7376C83.4159 24.1003 72.9048 10.9366 68.2267 4.68158L67.655 70.8381C82.751 66.0768 87.7091 45.0944 88.0707 26.7376Z" fill="url(#paint4_linear_4_885)"/>
<path opacity="0.1" d="M42.9579 39.7765L66.3718 52.6717L66.3834 95.6985L42.9696 82.815L42.9579 39.7765Z" fill="url(#paint5_linear_4_885)"/>
<path opacity="0.2" d="M45.991 64.9257L63.6418 74.6467L63.6885 90.0743L46.0377 80.3533L45.991 64.9257Z" fill="url(#paint6_linear_4_885)"/>
<path opacity="0.15" d="M46.3063 54.6623L54.4725 59.1552V60.7423L46.3063 56.2494V54.6623Z" fill="white"/>
<path opacity="0.15" d="M46.3414 57.8132L54.5077 62.3061V63.8932L46.3414 59.4003V57.8132Z" fill="white"/>
<path opacity="0.15" d="M46.3295 60.8479L61.8221 69.3785V70.9657L46.3295 62.435V60.8479Z" fill="white"/>
<path opacity="0.2" d="M42.9579 39.7765L66.3717 52.6717L66.3951 60.1054L42.9696 47.2218L42.9579 39.7765Z" fill="url(#paint7_linear_4_885)"/>
<path opacity="0.2" d="M48.8143 46.7675C48.8143 47.8878 48.1494 48.4363 47.3327 47.9811C46.5161 47.526 45.8395 46.254 45.8395 45.122C45.8395 44.0017 46.5044 43.4532 47.3211 43.9083C48.1494 44.3635 48.8143 45.6472 48.8143 46.7675Z" fill="white"/>
<path d="M56.864 64.7908L56.8407 58.3958L72.7183 67.1365L72.7416 73.5316L56.864 64.7908Z" fill="#F2C94C"/>
<path opacity="0.3" d="M38.7348 37.7888L4.01654 17.7516L4.02821 35.8516L35.6783 54.1266L38.7465 58.6662L38.7348 37.7888Z" fill="url(#paint8_linear_4_885)"/>
<path d="M0.318359 24.7982V19.8852L13.4194 27.4473V32.3603L0.318359 24.7982Z" fill="#F2994A"/>
<path opacity="0.15" d="M29.8104 37.0411L22.2041 32.6532V34.2403L29.8104 38.6282V37.0411Z" fill="white"/>
<path opacity="0.15" d="M29.8105 40.2242L15.1462 31.7636V33.3507L29.8105 41.8113V40.2242Z" fill="white"/>
<path opacity="0.15" d="M29.8101 43.3981L12.0426 33.1403V34.7274L29.8101 44.9852V43.3981Z" fill="white"/>
<path d="M31.6767 39.7818C31.6767 41.2756 32.5633 42.991 33.6483 43.6212C34.7332 44.2514 35.6198 43.5512 35.6198 42.0574C35.6198 40.5637 34.7332 38.8482 33.6483 38.2181C32.5633 37.5879 31.6767 38.2881 31.6767 39.7818Z" fill="#F2994A"/>
<path opacity="0.2" d="M27.5586 56.4361C28.2586 56.8328 28.8186 57.8131 28.8186 58.6183V62.1776L31.1751 63.5313C31.8751 63.9281 32.435 64.9084 32.435 65.7136C32.435 66.5188 31.8751 66.8456 31.1751 66.4488L28.8186 65.0951V68.6544C28.8186 69.4596 28.2586 69.7864 27.5586 69.3896C26.8587 68.9929 26.2987 68.0126 26.2987 67.2074V63.648L23.9421 62.2827C23.2422 61.8859 22.6822 60.9056 22.6822 60.1004C22.6822 59.2952 23.2422 58.9684 23.9421 59.3652L26.2987 60.7189V57.1596C26.2987 56.366 26.8587 56.0393 27.5586 56.4361Z" fill="url(#paint9_linear_4_885)"/>
<defs>
<linearGradient id="paint0_linear_4_885" x1="36.3308" y1="20.3223" x2="30.7156" y2="30.2424" gradientUnits="userSpaceOnUse">
<stop stop-color="white"/>
<stop offset="1" stop-color="white" stop-opacity="0"/>
</linearGradient>
<linearGradient id="paint1_linear_4_885" x1="93.5038" y1="78.7193" x2="87.8886" y2="88.6394" gradientUnits="userSpaceOnUse">
<stop stop-color="white"/>
<stop offset="1" stop-color="white" stop-opacity="0"/>
</linearGradient>
<linearGradient id="paint2_linear_4_885" x1="43.466" y1="6.82645" x2="75.9725" y2="35.9103" gradientUnits="userSpaceOnUse">
<stop stop-color="white"/>
<stop offset="1" stop-color="white" stop-opacity="0"/>
</linearGradient>
<linearGradient id="paint3_linear_4_885" x1="37.6803" y1="10.673" x2="70.1869" y2="39.7568" gradientUnits="userSpaceOnUse">
<stop stop-color="white"/>
<stop offset="1" stop-color="white" stop-opacity="0"/>
</linearGradient>
<linearGradient id="paint4_linear_4_885" x1="89.7559" y1="33.5831" x2="63.6862" y2="38.5709" gradientUnits="userSpaceOnUse">
<stop stop-color="white"/>
<stop offset="1" stop-color="white" stop-opacity="0"/>
</linearGradient>
<linearGradient id="paint5_linear_4_885" x1="43.0971" y1="56.5093" x2="67.658" y2="80.3369" gradientUnits="userSpaceOnUse">
<stop stop-color="white"/>
<stop offset="1" stop-color="white" stop-opacity="0"/>
</linearGradient>
<linearGradient id="paint6_linear_4_885" x1="49.1036" y1="65.2656" x2="59.6261" y2="87.697" gradientUnits="userSpaceOnUse">
<stop stop-color="white"/>
<stop offset="1" stop-color="white" stop-opacity="0"/>
</linearGradient>
<linearGradient id="paint7_linear_4_885" x1="50.9002" y1="39.755" x2="58.2303" y2="59.5477" gradientUnits="userSpaceOnUse">
<stop stop-color="white"/>
<stop offset="1" stop-color="white" stop-opacity="0"/>
</linearGradient>
<linearGradient id="paint8_linear_4_885" x1="31.1594" y1="30.5411" x2="13.2299" y2="44.5748" gradientUnits="userSpaceOnUse">
<stop stop-color="white"/>
<stop offset="1" stop-color="white" stop-opacity="0"/>
</linearGradient>
<linearGradient id="paint9_linear_4_885" x1="29.9959" y1="60.9903" x2="23.8863" y2="65.8103" gradientUnits="userSpaceOnUse">
<stop stop-color="white"/>
<stop offset="1" stop-color="white" stop-opacity="0"/>
</linearGradient>
</defs>
</svg>

