<svg width="15" height="13" viewBox="0 0 15 13" fill="none" xmlns="http://www.w3.org/2000/svg">
<path d="M14.0399 11.4628L13.099 8.14871V0.932713C13.099 0.657448 12.8766 0.435059 12.6014 0.435059H1.65296C1.3777 0.435059 1.15531 0.657448 1.15531 0.932713V8.14871L0.214428 11.4628C0.0977897 11.7878 0.337286 12.1299 0.682534 12.1299H13.5718C13.917 12.1299 14.1565 11.7878 14.0399 11.4628ZM2.27503 1.55478H11.9793V7.69771H2.27503V1.55478ZM5.82549 11.0102L5.95145 10.4348H8.28888L8.41485 11.0102H5.82549ZM9.30907 11.0102L9.01203 9.66189C8.99959 9.60435 8.94827 9.56392 8.89073 9.56392H5.35116C5.29206 9.56392 5.2423 9.60435 5.22986 9.66189L4.93282 11.0102H1.50678L2.16461 8.69302H12.0897L12.7476 11.0102H9.30907Z" fill="#C3C3C3"/>
</svg>

