<svg width="12" height="13" viewBox="0 0 12 13" fill="none" xmlns="http://www.w3.org/2000/svg">
<path d="M5.16208 8.8556L7.98118 6.41864C8.00002 6.40219 8.01525 6.38126 8.02571 6.35743C8.03617 6.3336 8.0416 6.30747 8.0416 6.28101C8.0416 6.25454 8.03617 6.22842 8.02571 6.20459C8.01525 6.18076 8.00002 6.15983 7.98118 6.14338L5.16208 3.70487C5.05746 3.61467 4.90336 3.69554 4.90336 3.84172V8.71719C4.90336 8.86337 5.05746 8.9458 5.16208 8.8556Z" fill="#C3C3C3"/>
<path d="M11.3504 0.0608826H0.944845C0.694604 0.0608826 0.492432 0.283272 0.492432 0.558537V12.0046C0.492432 12.2799 0.694604 12.5023 0.944845 12.5023H11.3504C11.6006 12.5023 11.8028 12.2799 11.8028 12.0046V0.558537C11.8028 0.283272 11.6006 0.0608826 11.3504 0.0608826ZM10.7848 11.3825H1.51036V1.18061H10.7848V11.3825Z" fill="#C3C3C3"/>
</svg>

