<svg width="16" height="16" viewBox="0 0 16 16" fill="none" xmlns="http://www.w3.org/2000/svg">
<path d="M12.9675 11.0938C12.9675 9.45898 12.0095 8.04688 10.6237 7.38916V4.96045C10.6237 4.73926 10.5461 4.52539 10.4025 4.35693L8.1701 1.70996C8.07635 1.59863 7.94305 1.54297 7.81122 1.54297C7.67938 1.54297 7.54608 1.59863 7.45233 1.70996L5.21991 4.35693C5.07733 4.52574 4.99899 4.73949 4.99872 4.96045V7.38916C3.61298 8.04688 2.65497 9.45898 2.65497 11.0938H4.94745C4.91376 11.1992 4.89618 11.3135 4.89618 11.4424C4.89618 11.7661 5.00751 12.0825 5.20966 12.333C5.37466 12.5379 5.59319 12.693 5.841 12.7812C6.17938 13.5723 6.94843 14.082 7.81122 14.082C8.23749 14.082 8.65057 13.9561 9.0036 13.7188C9.3493 13.4873 9.61737 13.1636 9.77997 12.7812C10.0277 12.6936 10.2462 12.5389 10.4113 12.3345C10.6137 12.0817 10.7243 11.7677 10.7248 11.4438C10.7248 11.3208 10.7087 11.2036 10.6794 11.0952L12.9675 11.0938ZM7.81122 5.46875C7.99521 5.47251 8.17041 5.54824 8.2992 5.67969C8.428 5.81114 8.50014 5.98784 8.50014 6.17188C8.50014 6.35591 8.428 6.53261 8.2992 6.66406C8.17041 6.79551 7.99521 6.87124 7.81122 6.875C7.62722 6.87124 7.45203 6.79551 7.32323 6.66406C7.19444 6.53261 7.1223 6.35591 7.1223 6.17188C7.1223 5.98784 7.19444 5.81114 7.32323 5.67969C7.45203 5.54824 7.62722 5.47251 7.81122 5.46875ZM9.5119 11.7998C9.43573 11.8438 9.34784 11.8613 9.26141 11.8496L8.97577 11.8145L8.93475 12.0986C8.85565 12.6538 8.37225 13.0728 7.81122 13.0728C7.25018 13.0728 6.76678 12.6538 6.68768 12.0986L6.64667 11.813L6.36102 11.8496C6.27418 11.86 6.18632 11.842 6.11053 11.7983C5.98309 11.7251 5.90399 11.5889 5.90399 11.4409C5.90399 11.2856 5.99042 11.1567 6.11786 11.0923H9.50604C9.63495 11.1582 9.71991 11.2871 9.71991 11.4409C9.71844 11.5903 9.63934 11.728 9.5119 11.7998Z" fill="#1890FF"/>
</svg>
