<svg width="12" height="12" viewBox="0 0 12 12" fill="none" xmlns="http://www.w3.org/2000/svg">
<path d="M10.7504 9.69614C10.4704 9.03284 10.064 8.43033 9.55392 7.92219C9.04538 7.41258 8.44298 7.00627 7.77996 6.7257C7.77403 6.72273 7.76809 6.72124 7.76215 6.71827C8.68698 6.05026 9.2882 4.96213 9.2882 3.73446C9.2882 1.70072 7.64042 0.052948 5.60668 0.052948C3.57294 0.052948 1.92517 1.70072 1.92517 3.73446C1.92517 4.96213 2.52638 6.05026 3.45121 6.71976C3.44528 6.72273 3.43934 6.72421 3.4334 6.72718C2.76835 7.00775 2.17159 7.41004 1.65945 7.92367C1.14984 8.43221 0.743527 9.03462 0.462953 9.69763C0.187318 10.3467 0.0386614 11.0426 0.025031 11.7477C0.0246348 11.7635 0.0274138 11.7793 0.0332043 11.7941C0.0389948 11.8088 0.0476797 11.8223 0.0587472 11.8336C0.0698146 11.8449 0.0830407 11.854 0.0976462 11.8601C0.112252 11.8663 0.127941 11.8694 0.14379 11.8694H1.03448C1.0998 11.8694 1.15175 11.8175 1.15324 11.7536C1.18293 10.6076 1.64312 9.53434 2.45661 8.72084C3.29831 7.87914 4.41613 7.41598 5.60668 7.41598C6.79724 7.41598 7.91505 7.87914 8.75675 8.72084C9.57025 9.53434 10.0304 10.6076 10.0601 11.7536C10.0616 11.819 10.1136 11.8694 10.1789 11.8694H11.0696C11.0854 11.8694 11.1011 11.8663 11.1157 11.8601C11.1303 11.854 11.1435 11.8449 11.1546 11.8336C11.1657 11.8223 11.1744 11.8088 11.1802 11.7941C11.186 11.7793 11.1887 11.7635 11.1883 11.7477C11.1735 11.0381 11.0265 10.3478 10.7504 9.69614ZM5.60668 6.28777C4.92531 6.28777 4.28401 6.02205 3.80155 5.53959C3.3191 5.05714 3.05337 4.41584 3.05337 3.73446C3.05337 3.05309 3.3191 2.41179 3.80155 1.92933C4.28401 1.44688 4.92531 1.18115 5.60668 1.18115C6.28806 1.18115 6.92936 1.44688 7.41181 1.92933C7.89427 2.41179 8.15999 3.05309 8.15999 3.73446C8.15999 4.41584 7.89427 5.05714 7.41181 5.53959C6.92936 6.02205 6.28806 6.28777 5.60668 6.28777Z" fill="#C3C3C3"/>
</svg>

